<svg width="28" height="28" viewBox="0 0 28 28" fill="none" xmlns="http://www.w3.org/2000/svg">
<g clip-path="url(#clip0_360_3087)">
<path d="M27.985 17.5231C27.9152 15.9189 27.6362 14.1402 27.2177 12.4662C26.7992 10.862 26.2761 9.36234 25.6483 8.21146C23.2071 3.9218 20.5565 4.58443 17.3829 5.42144C16.3715 5.66556 15.2904 5.94457 14.1744 6.04919H13.8256C12.7096 5.94457 11.6285 5.66556 10.6171 5.42144C7.44347 4.61931 4.79295 3.9218 2.35169 8.24633C1.72394 9.39721 1.16593 10.8968 0.782304 12.5011C0.363802 14.1751 0.0848002 15.9538 0.0150498 17.558C-0.0547006 19.3366 0.119675 20.627 0.503303 21.5338C0.88693 22.3708 1.44493 22.8939 2.17731 23.1032C2.83994 23.2775 3.6072 23.2078 4.40933 22.859C5.76946 22.301 7.33884 21.1153 8.87335 19.6854C9.95448 18.6391 11.9772 18.116 14 18.116C16.0228 18.116 18.0455 18.6391 19.1267 19.6854C20.6612 21.1153 22.2306 22.301 23.5907 22.859C24.3928 23.1729 25.1601 23.2775 25.8227 23.1032C26.5202 22.8939 27.1131 22.4057 27.4967 21.4989C27.8803 20.627 28.0547 19.3366 27.985 17.5231ZM26.311 21.0107C26.1017 21.4989 25.8227 21.7779 25.474 21.8825C25.0903 21.9872 24.6021 21.9174 24.0441 21.7082C22.8234 21.2199 21.3936 20.1388 19.9985 18.8135C18.6733 17.4883 16.3366 16.8256 14 16.8256C11.6634 16.8256 9.32673 17.4883 7.9666 18.7438C6.53671 20.069 5.10683 21.185 3.92107 21.6384C3.36307 21.8477 2.87482 21.9523 2.49119 21.8128C2.14244 21.7082 1.86344 21.4292 1.65418 20.9409C1.37518 20.2783 1.23568 19.1971 1.30543 17.5929C1.37518 16.0933 1.61931 14.3844 2.03781 12.7801C2.42144 11.2805 2.90969 9.88547 3.50257 8.83921C5.42071 5.38656 7.65272 5.94457 10.3032 6.64207C11.3844 6.92107 12.5004 7.20007 13.721 7.3047H14.2441C15.4996 7.20007 16.6157 6.92107 17.6968 6.64207C20.3473 5.97944 22.5793 5.38656 24.4974 8.83921C25.0903 9.88547 25.5786 11.2456 25.9622 12.7801C26.3458 14.3844 26.6248 16.0584 26.6946 17.5929C26.7643 19.1971 26.6248 20.2783 26.311 21.0107Z" fill="#4AD991"/>
<path d="M10.7915 10.7225C10.4427 10.4086 10.0242 10.1645 9.53596 10.1296C9.50109 9.67621 9.29184 9.22283 8.97796 8.90896L8.94308 8.87408C8.55946 8.49046 8.0712 8.2812 7.5132 8.2812C6.9552 8.2812 6.43207 8.52533 6.08332 8.87408C5.76944 9.18796 5.52531 9.64134 5.49044 10.1296C5.00219 10.1645 4.58368 10.3737 4.23493 10.6876L4.20006 10.7225C3.81643 11.1061 3.60718 11.5943 3.60718 12.1524C3.60718 12.7104 3.8513 13.2335 4.20006 13.5822C4.54881 13.931 4.96731 14.1402 5.49044 14.1751C5.52531 14.6634 5.73457 15.1167 6.08332 15.4306C6.46695 15.8142 6.9552 16.0235 7.5132 16.0235C8.0712 16.0235 8.59433 15.7794 8.94308 15.4306C9.25696 15.0819 9.50109 14.6634 9.53596 14.1751C10.0242 14.1402 10.4776 13.931 10.7915 13.5822C11.1751 13.1986 11.3843 12.7104 11.3843 12.1524C11.3843 11.5943 11.1402 11.0712 10.7915 10.7225ZM9.91959 12.6755C9.78009 12.815 9.60571 12.8847 9.39646 12.8847H8.90821C8.55946 12.8847 8.24558 13.1637 8.24558 13.5474V14.0007C8.24558 14.21 8.17583 14.3844 8.03633 14.5239C7.89683 14.6634 7.72245 14.7331 7.5132 14.7331C7.30395 14.7331 7.12957 14.6634 6.99007 14.5239C6.85057 14.3844 6.78082 14.21 6.78082 14.0007V13.5125C6.78082 13.1637 6.50182 12.8499 6.11819 12.8499H5.62994C5.42069 12.8499 5.24631 12.7801 5.10681 12.6406C5.00219 12.536 4.89756 12.3616 4.89756 12.1524C4.89756 11.9431 4.96731 11.7687 5.10681 11.6292L5.14169 11.5943C5.28119 11.4897 5.45556 11.42 5.62994 11.42H6.11819C6.46694 11.42 6.78082 11.141 6.78082 10.7573V10.2691C6.78082 10.0598 6.85057 9.88546 6.99007 9.74596C7.12957 9.60646 7.30395 9.53671 7.5132 9.53671C7.72245 9.53671 7.89683 9.60646 8.03633 9.74596L8.0712 9.78084C8.17583 9.92034 8.24558 10.0947 8.24558 10.2691V10.7573C8.24558 11.1061 8.52458 11.42 8.90821 11.42H9.39646C9.60571 11.42 9.78009 11.4897 9.91959 11.6292C10.0591 11.7687 10.1288 11.9431 10.1288 12.1524C10.1288 12.3616 10.0591 12.536 9.91959 12.6755Z" fill="#4AD991"/>
<path d="M20.0683 10.8968C20.7424 10.8968 21.2889 10.3504 21.2889 9.67621C21.2889 9.00208 20.7424 8.45558 20.0683 8.45558C19.3942 8.45558 18.8477 9.00208 18.8477 9.67621C18.8477 10.3504 19.3942 10.8968 20.0683 10.8968Z" fill="#4AD991"/>
<path d="M20.0683 15.8491C20.7424 15.8491 21.2889 15.3026 21.2889 14.6285C21.2889 13.9544 20.7424 13.4079 20.0683 13.4079C19.3942 13.4079 18.8477 13.9544 18.8477 14.6285C18.8477 15.3026 19.3942 15.8491 20.0683 15.8491Z" fill="#4AD991"/>
<path d="M17.5922 13.373C18.2664 13.373 18.8128 12.8265 18.8128 12.1523C18.8128 11.4782 18.2664 10.9317 17.5922 10.9317C16.9181 10.9317 16.3716 11.4782 16.3716 12.1523C16.3716 12.8265 16.9181 13.373 17.5922 13.373Z" fill="#4AD991"/>
<path d="M22.5444 13.373C23.2185 13.373 23.765 12.8265 23.765 12.1523C23.765 11.4782 23.2185 10.9317 22.5444 10.9317C21.8702 10.9317 21.3237 11.4782 21.3237 12.1523C21.3237 12.8265 21.8702 13.373 22.5444 13.373Z" fill="#4AD991"/>
</g>
<defs>
<clipPath id="clip0_360_3087">
<rect width="28" height="28" fill="white"/>
</clipPath>
</defs>
</svg>
