<svg width="28" height="29" viewBox="0 0 28 29" fill="none" xmlns="http://www.w3.org/2000/svg">
<g clip-path="url(#clip0_360_3097)">
<path d="M19.1798 16.962C19.2471 16.9683 19.3148 16.9567 19.3761 16.9284C19.4375 16.9001 19.4902 16.856 19.529 16.8007C19.5678 16.7454 19.5913 16.6808 19.597 16.6135C19.6028 16.5462 19.5907 16.4786 19.5619 16.4175L18.1621 13.452C18.5049 13.3597 18.811 13.1782 19.0849 12.9043C19.6083 12.3809 19.7974 11.7417 19.6632 10.9503C19.5737 10.4216 19.7812 9.92052 20.2184 9.61001C20.8729 9.14517 21.1911 8.55946 21.1911 7.81938C21.1911 7.07929 20.873 6.49359 20.2184 6.02874C19.7812 5.71823 19.5737 5.21713 19.6633 4.6883C19.7972 3.89664 19.608 3.25756 19.0849 2.73442C18.5614 2.21101 17.9223 2.02179 17.131 2.1561C16.6023 2.24568 16.1012 2.03814 15.7906 1.60092C15.3257 0.946361 14.74 0.628189 14 0.628189C13.2599 0.628189 12.6742 0.946361 12.2093 1.60092C11.8988 2.03814 11.3975 2.24574 10.8689 2.15605C10.0773 2.02212 9.4382 2.21128 8.91506 2.73448C8.39192 3.25767 8.20253 3.89697 8.33674 4.68841C8.42631 5.21713 8.21878 5.71823 7.78149 6.02874C7.12699 6.49364 6.80882 7.07935 6.80882 7.81938C6.80882 8.55941 7.12699 9.14517 7.78149 9.60995C8.21872 9.92053 8.42632 10.4216 8.33668 10.9504C8.20275 11.742 8.39192 12.3811 8.91511 12.9043C9.195 13.1842 9.50842 13.3675 9.86011 13.4579L8.45864 16.4271C8.4298 16.4882 8.41765 16.5559 8.42341 16.6232C8.42917 16.6905 8.45265 16.7551 8.49145 16.8104C8.53026 16.8657 8.583 16.9098 8.64434 16.9381C8.70568 16.9664 8.77342 16.978 8.84068 16.9717L10.4529 16.8201L11.4874 18.0659C11.5306 18.1179 11.5867 18.1575 11.6501 18.1807C11.7136 18.204 11.782 18.21 11.8485 18.1983C11.9151 18.1865 11.9773 18.1574 12.0289 18.1138C12.0805 18.0702 12.1197 18.0137 12.1424 17.9501L13.2395 14.8783C13.473 14.9666 13.7259 15.0105 14 15.0105C14.2824 15.0105 14.5422 14.9638 14.7815 14.8701L15.8781 17.9404C15.9009 18.0041 15.94 18.0605 15.9916 18.1041C16.0433 18.1477 16.1055 18.1768 16.172 18.1886C16.2385 18.2004 16.307 18.1943 16.3704 18.1711C16.4338 18.1478 16.49 18.1082 16.5331 18.0563L17.5677 16.8105L19.1798 16.962ZM11.6472 17.0601L10.9126 16.1755C10.8728 16.1276 10.8219 16.0901 10.7644 16.0663C10.7068 16.0425 10.6443 16.0331 10.5823 16.039L9.43754 16.1466L10.6831 13.5078C10.7453 13.5013 10.8073 13.4929 10.8689 13.4826C11.3977 13.3931 11.8988 13.6006 12.2093 14.0378C12.3238 14.1992 12.4459 14.3399 12.5757 14.4606L11.6472 17.0601L11.6472 17.0601ZM12.8335 13.5945C12.4231 13.0166 11.7996 12.6958 11.1171 12.6958C10.991 12.6959 10.8653 12.7066 10.7411 12.7277C10.1898 12.8212 9.80564 12.712 9.45646 12.3629C9.10739 12.0138 8.99824 11.6296 9.09153 11.0782C9.23137 10.2528 8.90735 9.47056 8.22479 8.9857C7.76892 8.66195 7.57439 8.3131 7.57439 7.81927C7.57439 7.32544 7.76892 6.97664 8.22479 6.65284C8.9074 6.16803 9.23142 5.38578 9.09153 4.56033C8.99807 4.00913 9.10717 3.62495 9.45641 3.27572C9.80548 2.9266 10.1896 2.81755 10.7411 2.91085C11.5664 3.05085 12.3487 2.72666 12.8335 2.04416C13.1573 1.58828 13.5062 1.39376 14 1.39376C14.4937 1.39376 14.8426 1.58828 15.1664 2.04421C15.6512 2.72666 16.4333 3.05052 17.2589 2.9109C17.81 2.81744 18.1943 2.92654 18.5436 3.27577C18.8926 3.62479 19.0017 4.00903 18.9085 4.56038C18.7686 5.38578 19.0926 6.16803 19.7752 6.65284C20.231 6.97664 20.4256 7.32549 20.4256 7.81927C20.4256 8.31304 20.231 8.66189 19.7751 8.9857C19.0926 9.4705 18.7685 10.2528 18.9084 11.0782C19.0019 11.6294 18.8928 12.0136 18.5436 12.3628C18.1945 12.7119 17.8104 12.8211 17.2589 12.7277C16.4335 12.5878 15.6512 12.9119 15.1664 13.5944C14.8426 14.0504 14.4937 14.2449 14 14.2449C13.5062 14.2449 13.1573 14.0504 12.8335 13.5945ZM17.1077 16.1659L16.3732 17.0504L15.4419 14.4432C15.565 14.3263 15.6813 14.1917 15.7906 14.0378C16.1012 13.6006 16.6023 13.393 17.131 13.4826C17.2031 13.4948 17.2734 13.5034 17.3429 13.5102L18.5828 16.1369L17.438 16.0293C17.376 16.0234 17.3135 16.0328 17.2559 16.0566C17.1984 16.0804 17.1475 16.118 17.1077 16.1659H17.1077ZM18.6586 7.81932C18.6586 5.25054 16.5687 3.16071 14 3.16071C11.4312 3.16071 9.34135 5.25054 9.34135 7.81932C9.34135 10.3881 11.4312 12.4779 14 12.4779C16.5687 12.4779 18.6586 10.3881 18.6586 7.81932ZM14 11.7123C11.8534 11.7123 10.107 9.96592 10.107 7.81932C10.107 5.67273 11.8534 3.92634 14 3.92634C16.1465 3.92634 17.8929 5.67273 17.8929 7.81932C17.8929 9.96592 16.1465 11.7123 14 11.7123ZM17.0674 6.83571C16.9951 6.61319 16.806 6.45678 16.5739 6.42763L15.1505 6.24875L14.5405 4.95031C14.4411 4.73856 14.2339 4.60703 14 4.60703C13.766 4.60703 13.5589 4.73861 13.4594 4.95031L12.8494 6.24875L11.426 6.42763C11.1938 6.45678 11.0047 6.61319 10.9325 6.8356C10.8602 7.05807 10.9213 7.29574 11.0919 7.45581L12.1383 8.43724L11.8687 9.8462C11.8247 10.076 11.9149 10.3042 12.1042 10.4416C12.2934 10.5791 12.5383 10.5944 12.7433 10.4816L14 9.78977L15.2567 10.4817C15.3451 10.5307 15.4444 10.5565 15.5455 10.5567C15.6685 10.5567 15.7906 10.518 15.8956 10.4417C16.0849 10.3042 16.1752 10.0761 16.1312 9.8462L15.8616 8.43718L16.908 7.4557C17.0786 7.29563 17.1396 7.05802 17.0674 6.83566L17.0674 6.83571ZM15.1841 8.02298C15.137 8.06713 15.1018 8.12248 15.0819 8.18388C15.062 8.24528 15.0579 8.31072 15.07 8.37413L15.312 9.63812L14.1846 9.01747C14.128 8.98634 14.0645 8.97001 14 8.97001C13.9354 8.97001 13.8719 8.98634 13.8153 9.01747L12.6879 9.63817L12.9299 8.37418C12.942 8.31078 12.9379 8.24534 12.918 8.18395C12.898 8.12255 12.8629 8.0672 12.8158 8.02303L11.8771 7.14262L13.154 6.98211C13.2181 6.97407 13.2791 6.94995 13.3313 6.912C13.3835 6.87404 13.4253 6.8235 13.4528 6.76506L14 5.60027L14.5472 6.76506C14.5747 6.82348 14.6165 6.87401 14.6687 6.91196C14.7209 6.94991 14.7819 6.97404 14.8459 6.98211L16.1229 7.14262L15.1842 8.02303L15.1841 8.02298ZM10.7643 19.8117C10.4345 18.6908 9.61528 18.0628 8.66667 17.3357C7.6351 16.545 6.4661 15.649 5.41511 13.831C5.17547 13.383 4.72889 13.112 4.21882 13.1056C3.89617 13.1015 3.59648 13.204 3.35624 13.3915C3.07356 11.6004 2.90282 9.14451 2.90282 8.10577C2.90282 7.22897 2.39844 6.73514 1.8986 6.63457C1.35199 6.5246 0.833065 6.84878 0.57669 7.46046C0.220838 8.30976 0.182338 11.6575 0.240799 13.2611C0.29483 14.742 0.39551 15.9043 1.20314 17.3773C1.5871 18.0777 2.05708 18.7588 2.51164 19.4176C2.70278 19.6947 2.88335 19.9563 3.04977 20.2085C3.77558 21.3082 4.26476 22.2185 4.40252 23.2052C3.99739 23.2888 3.65242 23.5916 3.53824 24.0177L2.99727 26.0366C2.98423 26.0852 2.98089 26.1358 2.98743 26.1857C2.99398 26.2355 3.01029 26.2836 3.03542 26.3271C3.06056 26.3707 3.09403 26.4088 3.13392 26.4394C3.17382 26.47 3.21935 26.4924 3.26792 26.5054L9.5088 28.1777C9.55735 28.1907 9.60801 28.1941 9.65786 28.1875C9.70771 28.181 9.75578 28.1646 9.7993 28.1394C9.84284 28.1143 9.88099 28.0809 9.91159 28.041C9.94219 28.0011 9.96463 27.9556 9.97764 27.907L10.5186 25.8881C10.6423 25.4266 10.4593 24.9547 10.0958 24.687C10.888 22.442 11.0939 20.9322 10.7643 19.8117V19.8117ZM9.77907 25.6899L9.33719 27.339L3.83585 25.8649L4.27772 24.2158C4.30275 24.1229 4.36364 24.0436 4.44703 23.9954C4.53042 23.9473 4.6295 23.9342 4.72255 23.959L9.5222 25.2451C9.61519 25.2701 9.69446 25.331 9.74261 25.4144C9.79077 25.4977 9.80388 25.5968 9.77907 25.6899ZM9.38001 24.4143L5.18362 23.2899C5.04575 21.9437 4.3446 20.7804 3.68879 19.7868C3.518 19.528 3.33529 19.2631 3.14186 18.9828C2.69829 18.3399 2.23963 17.6751 1.87453 17.0092C1.14615 15.6807 1.05772 14.6515 1.00599 13.2331C0.932815 11.2264 1.04006 8.33595 1.28287 7.75638C1.39542 7.48802 1.56905 7.34917 1.74771 7.3851C1.93535 7.42284 2.13725 7.66439 2.13725 8.10572C2.13725 9.48155 2.40976 13.0681 2.85497 14.7999L2.8553 14.7998C3.06874 16.357 4.8503 18.4256 5.64474 18.9319C5.73037 18.9864 5.83416 19.0047 5.93328 18.9828C6.03241 18.9608 6.11874 18.9004 6.1733 18.8147C6.22786 18.7291 6.24616 18.6253 6.2242 18.5262C6.20223 18.4271 6.14178 18.3407 6.05616 18.2862C5.65338 18.0295 4.8906 17.2206 4.31124 16.3113C3.70875 15.3654 3.46249 14.5495 3.66867 14.1818C3.77935 13.9844 3.98296 13.8702 4.20914 13.871C4.43692 13.8739 4.63603 13.9951 4.74169 14.1953C4.74393 14.1996 4.74628 14.2038 4.74869 14.208C5.87678 16.1618 7.16538 17.1496 8.20084 17.9433C9.11204 18.6417 9.77042 19.1464 10.0297 20.0277C10.3067 20.9694 10.1002 22.3673 9.37996 24.4142L9.38001 24.4143ZM27.4232 7.46046C27.1668 6.84884 26.6479 6.52476 26.1013 6.63457C25.6015 6.73509 25.0971 7.22897 25.0971 8.10577C25.0971 9.1444 24.9264 11.6001 24.6437 13.3913C24.4036 13.2036 24.1041 13.101 23.7811 13.1056C23.2711 13.112 22.8244 13.383 22.5848 13.831C21.5338 15.649 20.3648 16.545 19.3332 17.3357C18.3846 18.0628 17.5654 18.6908 17.2356 19.8117C16.906 20.9322 17.1119 22.4419 17.904 24.687C17.5406 24.9546 17.3576 25.4265 17.4813 25.888L18.0223 27.9069C18.0353 27.9555 18.0577 28.001 18.0883 28.0409C18.1189 28.0808 18.1571 28.1143 18.2006 28.1394C18.2441 28.1645 18.2922 28.1809 18.3421 28.1874C18.3919 28.1939 18.4426 28.1906 18.4911 28.1776L24.732 26.5053C24.7806 26.4923 24.8261 26.4699 24.866 26.4393C24.9059 26.4087 24.9394 26.3705 24.9645 26.327C24.9896 26.2835 25.0059 26.2354 25.0125 26.1855C25.019 26.1357 25.0157 26.0851 25.0026 26.0365L24.4617 24.0176C24.3475 23.5916 24.0024 23.2888 23.5974 23.2051C23.7351 22.2185 24.2243 21.3082 24.9501 20.2084C25.1164 19.9563 25.297 19.6948 25.488 19.4178C25.9426 18.759 26.4127 18.0777 26.7967 17.3773C27.6044 15.9041 27.7051 14.742 27.7591 13.261C27.8176 11.6574 27.7791 8.30971 27.4231 7.46041L27.4232 7.46046ZM23.7222 24.2158L24.1641 25.865L18.6627 27.339L18.2208 25.6899C18.196 25.5968 18.2092 25.4978 18.2573 25.4144C18.3054 25.331 18.3847 25.2701 18.4777 25.2451L23.2774 23.959C23.308 23.9507 23.3396 23.9466 23.3713 23.9466C23.5316 23.9466 23.6788 24.0538 23.7222 24.2158ZM26.994 13.2331C26.9422 14.6515 26.8539 15.6806 26.1254 17.0093C25.7603 17.6753 25.3015 18.3401 24.8579 18.9831C24.6645 19.2634 24.4819 19.5281 24.3111 19.7868C23.6553 20.7805 22.9542 21.9438 22.8163 23.2899L18.6198 24.4144C17.8996 22.3675 17.6931 20.9694 17.9701 20.0278C18.2294 19.1465 18.8878 18.6419 19.799 17.9434C20.8344 17.1497 22.123 16.162 23.2511 14.2081C23.2535 14.2039 23.2558 14.1997 23.2581 14.1954C23.3638 13.9952 23.5629 13.874 23.7907 13.8712C24.02 13.8705 24.2205 13.9845 24.3312 14.1819C24.5374 14.5497 24.2911 15.3656 23.6886 16.3114C23.1093 17.2207 22.3465 18.0296 21.9437 18.2863C21.8581 18.3408 21.7976 18.4272 21.7757 18.5263C21.7537 18.6254 21.772 18.7292 21.8266 18.8148C21.8811 18.9005 21.9674 18.9609 22.0666 18.9829C22.1657 19.0049 22.2695 18.9865 22.3551 18.932C23.1496 18.4257 24.9312 16.3572 25.1446 14.7999L25.1449 14.8C25.5902 13.068 25.8626 9.48149 25.8626 8.10583C25.8626 7.66456 26.0645 7.42295 26.2522 7.38521C26.4307 7.34934 26.6045 7.48808 26.717 7.75643C26.96 8.33606 27.0672 11.2265 26.994 13.2331ZM21.001 4.68261C20.9503 4.59469 20.9365 4.4902 20.9628 4.39213C20.9891 4.29407 21.0532 4.21045 21.1412 4.15969L22.0836 3.61555C22.1715 3.56558 22.2756 3.55241 22.3731 3.57889C22.4707 3.60538 22.5538 3.66938 22.6044 3.75692C22.6549 3.84447 22.6688 3.94845 22.6429 4.04618C22.6171 4.14391 22.5537 4.22745 22.4665 4.27858L21.524 4.82272C21.4804 4.84789 21.4324 4.86423 21.3825 4.87082C21.3327 4.8774 21.282 4.87409 21.2335 4.86107C21.1849 4.84806 21.1394 4.8256 21.0995 4.79498C21.0596 4.76436 21.0262 4.72617 21.001 4.68261ZM22.4665 11.36C22.5103 11.385 22.5489 11.4183 22.5798 11.4582C22.6107 11.4981 22.6335 11.5438 22.6467 11.5925C22.6599 11.6412 22.6634 11.6921 22.6569 11.7421C22.6504 11.7922 22.634 11.8405 22.6088 11.8842C22.5835 11.9279 22.5499 11.9662 22.5098 11.9969C22.4697 12.0276 22.4239 12.05 22.3751 12.0629C22.3263 12.0758 22.2754 12.0789 22.2254 12.0721C22.1754 12.0652 22.1272 12.0486 22.0836 12.023L21.1412 11.4789C21.0973 11.4539 21.0588 11.4206 21.0278 11.3807C20.9969 11.3408 20.9742 11.2951 20.9609 11.2464C20.9477 11.1977 20.9442 11.1468 20.9507 11.0968C20.9573 11.0467 20.9736 10.9984 20.9988 10.9547C21.0241 10.911 21.0577 10.8727 21.0978 10.842C21.1379 10.8114 21.1837 10.7889 21.2325 10.776C21.2813 10.7631 21.3322 10.76 21.3822 10.7668C21.4322 10.7737 21.4804 10.7903 21.524 10.8159L22.4665 11.36ZM22.2243 7.43651H23.3126C23.4141 7.43651 23.5115 7.47684 23.5833 7.54863C23.6551 7.62042 23.6954 7.71779 23.6954 7.81932C23.6954 7.92085 23.6551 8.01822 23.5833 8.09001C23.5115 8.1618 23.4141 8.20213 23.3126 8.20213H22.2243C22.1228 8.20213 22.0254 8.1618 21.9536 8.09001C21.8818 8.01822 21.8415 7.92085 21.8415 7.81932C21.8415 7.71779 21.8818 7.62042 21.9536 7.54863C22.0254 7.47684 22.1228 7.43651 22.2243 7.43651ZM6.47599 10.8159C6.56387 10.7659 6.66794 10.7527 6.7655 10.7792C6.86306 10.8057 6.94618 10.8697 6.99672 10.9572C7.04727 11.0448 7.06114 11.1488 7.0353 11.2465C7.00946 11.3442 6.94601 11.4278 6.85881 11.4789L5.91632 12.023C5.87279 12.0482 5.82473 12.0645 5.77489 12.0711C5.72504 12.0777 5.67439 12.0743 5.62583 12.0613C5.57727 12.0483 5.53175 12.0259 5.49187 11.9953C5.45199 11.9646 5.41853 11.9265 5.3934 11.8829C5.34264 11.795 5.32888 11.6905 5.35516 11.5925C5.38143 11.4944 5.44559 11.4108 5.53351 11.36L6.47599 10.8159ZM4.30452 7.81932C4.30452 7.71779 4.34485 7.62042 4.41664 7.54863C4.48843 7.47684 4.5858 7.43651 4.68733 7.43651H5.77567C5.87719 7.43651 5.97456 7.47684 6.04636 7.54863C6.11815 7.62042 6.15848 7.71779 6.15848 7.81932C6.15848 7.92085 6.11815 8.01822 6.04636 8.09001C5.97456 8.1618 5.87719 8.20213 5.77567 8.20213H4.68733C4.5858 8.20213 4.48843 8.1618 4.41664 8.09001C4.34485 8.01822 4.30452 7.92085 4.30452 7.81932ZM5.3934 3.75566C5.41853 3.71211 5.45199 3.67394 5.49187 3.64334C5.53175 3.61273 5.57727 3.59027 5.62583 3.57726C5.67439 3.56425 5.72504 3.56094 5.77489 3.5675C5.82473 3.57407 5.87279 3.5904 5.91632 3.61555L6.85881 4.15969C6.90269 4.18464 6.94121 4.21803 6.97215 4.25793C7.00308 4.29783 7.02581 4.34345 7.03904 4.39217C7.05227 4.4409 7.05573 4.49175 7.04922 4.54182C7.04271 4.59188 7.02637 4.64016 7.00112 4.68388C6.97588 4.72761 6.94224 4.7659 6.90213 4.79657C6.86203 4.82724 6.81626 4.84967 6.76745 4.86257C6.71864 4.87547 6.66776 4.8786 6.61774 4.87176C6.56772 4.86492 6.51955 4.84825 6.47599 4.82272L5.53351 4.27858C5.44559 4.22781 5.38143 4.1442 5.35516 4.04614C5.32888 3.94807 5.34264 3.84358 5.3934 3.75566Z" fill="#FF9066"/>
</g>
<defs>
<clipPath id="clip0_360_3097">
<rect width="28" height="28" fill="white" transform="translate(0 0.409439)"/>
</clipPath>
</defs>
</svg>
