<svg width="32" height="24" viewBox="0 0 32 24" fill="none" xmlns="http://www.w3.org/2000/svg">
<path opacity="0.587821" d="M23.9996 6.66699C26.2088 6.66699 27.9996 8.45785 27.9996 10.667C27.9995 12.876 26.2087 14.667 23.9996 14.667C21.7908 14.6668 19.9998 12.8759 19.9996 10.667C19.9996 8.45796 21.7906 6.66717 23.9996 6.66699ZM11.9996 0C14.945 0 17.3334 2.38764 17.3336 5.33301C17.3336 8.27853 14.9452 10.667 11.9996 10.667C9.05426 10.6668 6.66663 8.27842 6.66663 5.33301C6.6668 2.38775 9.05437 0.000175999 11.9996 0Z" fill="#8280FF"/>
<path d="M11.9774 13.3333C18.3611 13.3333 23.6061 16.3908 23.997 22.9329C24.0125 23.1936 23.9966 24.0003 22.995 24.0003H0.969619C0.635144 23.9999 -0.0272745 23.2785 0.000869049 22.932C0.517816 16.5687 5.68241 13.3334 11.9774 13.3333ZM23.4686 16.0023C28.0103 16.0521 31.7187 18.3469 31.9979 23.1995C32.0092 23.395 31.9977 24.0003 31.2743 24.0003H26.1337C26.1337 20.9996 25.1416 18.2304 23.4686 16.0023Z" fill="#8280FF"/>
</svg>
